<svg width="24" height="24" viewBox="0 0 24 24" fill="none" xmlns="http://www.w3.org/2000/svg">
<path d="M3.5 8.79289V5.20711C3.5 4.75435 3.67986 4.32014 4 4C4.32014 3.67986 4.75435 3.5 5.20711 3.5H8.79289C9.24565 3.5 9.67986 3.67986 10 4C10.3201 4.32014 10.5 4.75435 10.5 5.20711V8.79289C10.5 9.24565 10.3201 9.67986 10 10C9.67986 10.3201 9.24565 10.5 8.79289 10.5H5.20711C4.75435 10.5 4.32014 10.3201 4 10C3.67986 9.67986 3.5 9.24565 3.5 8.79289Z" stroke="black" stroke-width="1.5"/>
<path d="M3.5 18.7929V15.2071C3.5 14.7544 3.67986 14.3201 4 14C4.32014 13.6799 4.75435 13.5 5.20711 13.5H8.79289C9.24565 13.5 9.67986 13.6799 10 14C10.3201 14.3201 10.5 14.7544 10.5 15.2071V18.7929C10.5 19.2456 10.3201 19.6799 10 20C9.67986 20.3201 9.24565 20.5 8.79289 20.5H5.20711C4.75435 20.5 4.32014 20.3201 4 20C3.67986 19.6799 3.5 19.2456 3.5 18.7929Z" stroke="black" stroke-width="1.5"/>
<path d="M13.5 18.7929V15.2071C13.5 14.7544 13.6799 14.3201 14 14C14.3201 13.6799 14.7544 13.5 15.2071 13.5H18.7929C19.2456 13.5 19.6799 13.6799 20 14C20.3201 14.3201 20.5 14.7544 20.5 15.2071V18.7929C20.5 19.2456 20.3201 19.6799 20 20C19.6799 20.3201 19.2456 20.5 18.7929 20.5H15.2071C14.7544 20.5 14.3201 20.3201 14 20C13.6799 19.6799 13.5 19.2456 13.5 18.7929Z" stroke="black" stroke-width="1.5"/>
<circle cx="17" cy="7" r="3.5" stroke="black" stroke-width="1.5"/>
</svg>
