<svg width="24" height="24" viewBox="0 0 24 24" fill="none" xmlns="http://www.w3.org/2000/svg">
<path d="M21 12C21 12.2357 20.921 12.4618 20.7803 12.6285C20.6397 12.7952 20.4489 12.8889 20.25 12.8889H3.75C3.55109 12.8889 3.36032 12.7952 3.21967 12.6285C3.07902 12.4618 3 12.2357 3 12C3 11.7643 3.07902 11.5382 3.21967 11.3715C3.36032 11.2048 3.55109 11.1111 3.75 11.1111H20.25C20.4489 11.1111 20.6397 11.2048 20.7803 11.3715C20.921 11.5382 21 11.7643 21 12ZM3.75 5.77778H20.25C20.4489 5.77778 20.6397 5.68413 20.7803 5.51743C20.921 5.35073 21 5.12464 21 4.88889C21 4.65314 20.921 4.42705 20.7803 4.26035C20.6397 4.09365 20.4489 4 20.25 4H3.75C3.55109 4 3.36032 4.09365 3.21967 4.26035C3.07902 4.42705 3 4.65314 3 4.88889C3 5.12464 3.07902 5.35073 3.21967 5.51743C3.36032 5.68413 3.55109 5.77778 3.75 5.77778ZM20.25 18.2222H3.75C3.55109 18.2222 3.36032 18.3159 3.21967 18.4826C3.07902 18.6493 3 18.8754 3 19.1111C3 19.3469 3.07902 19.573 3.21967 19.7397C3.36032 19.9064 3.55109 20 3.75 20H20.25C20.4489 20 20.6397 19.9064 20.7803 19.7397C20.921 19.573 21 19.3469 21 19.1111C21 18.8754 20.921 18.6493 20.7803 18.4826C20.6397 18.3159 20.4489 18.2222 20.25 18.2222Z" fill="black"/>
</svg>
