<svg xmlns="http://www.w3.org/2000/svg" width="32" height="32" viewBox="0 0 32 32" fill="none">
<path d="M4 16L6.66667 13.3333M6.66667 13.3333L16 4L25.3333 13.3333M6.66667 13.3333V26.6667C6.66667 27.0203 6.80714 27.3594 7.05719 27.6095C7.30724 27.8595 7.64638 28 8 28H12M25.3333 13.3333L28 16M25.3333 13.3333V26.6667C25.3333 27.0203 25.1929 27.3594 24.9428 27.6095C24.6928 27.8595 24.3536 28 24 28H20M12 28C12.3536 28 12.6928 27.8595 12.9428 27.6095C13.1929 27.3594 13.3333 27.0203 13.3333 26.6667V21.3333C13.3333 20.9797 13.4738 20.6406 13.7239 20.3905C13.9739 20.1405 14.313 20 14.6667 20H17.3333C17.687 20 18.0261 20.1405 18.2761 20.3905C18.5262 20.6406 18.6667 20.9797 18.6667 21.3333V26.6667C18.6667 27.0203 18.8071 27.3594 19.0572 27.6095C19.3072 27.8595 19.6464 28 20 28M12 28H20" stroke="#176B87" stroke-width="2" stroke-linecap="round" stroke-linejoin="round"/>
</svg>