<?xml version="1.0" encoding="utf-8"?>
<svg version="1.1" xmlns="http://www.w3.org/2000/svg" xmlns:xlink="http://www.w3.org/1999/xlink" x="0px" y="0px"
	 viewBox="0 0 192 192" style="enable-background:new 0 0 192 192;" xml:space="preserve">
<style type="text/css">
	.st0{fill:#166782;}
	.st1{fill:#FFFFFF;}
</style>
<g id="logo-icon-background">
	<path class="st0" d="M171,181H21c-5.52,0-10-4.48-10-10V21c0-5.52,4.48-10,10-10H171c5.52,0,10,4.48,10,10V171
		C181,176.52,176.52,181,171,181z"/>
</g>
<g id="logo-icon-calendar">
	<path class="st1" d="M33.38,64.72c9.15,0,18.3,0,27.44,0c32.52,0,65.04,0,97.56,0v-11.5c0-5.52-4.48-10-10-10H43.14
		c-5.52,0-10,4.48-10,10v11.53C33.22,64.74,33.29,64.72,33.38,64.72z"/>
	<path class="st1" d="M131.18,72.27c-32.6,0-65.2,0-97.8,0c-0.08,0-0.16-0.03-0.24-0.04v73.21c0,5.52,4.48,10,10,10h105.24
		c5.52,0,10-4.48,10-10V72.27C149.32,72.27,140.25,72.27,131.18,72.27z"/>
	<circle class="st0" cx="62.2" cy="50.58" r="7"/>
	<path class="st1" d="M67.2,49.58c0-4.77,0-9.54,0-14.3c0-2.62-2.3-5.12-5-5c-2.71,0.12-5,2.2-5,5c0,4.77,0,9.54,0,14.3
		c0,2.62,2.3,5.12,5,5C64.9,54.46,67.2,52.38,67.2,49.58L67.2,49.58z"/>
	<circle class="st0" cx="84.73" cy="50.58" r="7"/>
	<path class="st1" d="M89.73,49.79c0-4.77,0-9.54,0-14.3c0-2.62-2.3-5.12-5-5c-2.71,0.12-5,2.2-5,5c0,4.77,0,9.54,0,14.3
		c0,2.62,2.3,5.12,5,5C87.44,54.67,89.73,52.59,89.73,49.79L89.73,49.79z"/>
	<circle class="st0" cx="107.27" cy="50.58" r="7"/>
	<path class="st1" d="M112.27,49.79c0-4.77,0-9.54,0-14.3c0-2.62-2.3-5.12-5-5c-2.71,0.12-5,2.2-5,5c0,4.77,0,9.54,0,14.3
		c0,2.62,2.3,5.12,5,5C109.98,54.67,112.27,52.59,112.27,49.79L112.27,49.79z"/>
	<circle class="st0" cx="129.8" cy="50.58" r="7"/>
	<path class="st1" d="M134.8,49.79c0-4.77,0-9.54,0-14.3c0-2.62-2.3-5.12-5-5c-2.71,0.12-5,2.2-5,5c0,4.77,0,9.54,0,14.3
		c0,2.62,2.3,5.12,5,5C132.51,54.67,134.8,52.59,134.8,49.79L134.8,49.79z"/>
	<path class="st0" d="M105.02,83.23c0.36-2.28,0.51-4.21,0.41-5.66c-2.95,0.37-7.46,1.19-7.33,4.94c0.02,0.23,0.02,0.52-0.01,0.88
		c-8.18,0.9-16.26,4.26-20.63,9.55c-3.91,4.73-4.43,12.27,1.77,14.78c5.98,2.41,12.68-3.55,10.35-9.39c-1.24-3.1-1.56-1.95-2.5,1.14
		c-2.25,7.38-8.35,4.29-5.81-1.13c2.11-4.38,8.49-7.36,15.2-8.18c-2,6.58-5.63,16.19-9.79,25.28c-4.97-0.27-9.95-1.32-13.25-3.54
		c-1.63-1.1-0.47-0.79-2.9-1.35c-0.53,8.19,5.58,11.2,12.76,11.93c-7.34,14.4-15.36,24.63-18.79,13.69
		c0.72-1.74,3.43-0.33,3.85,1.43c0.6,2.52,5.58-5.04,2.79-6.65c-6.49-3.97-12.95,1-10.65,8.45c8.45,16.05,20.97,2.11,30.66-16.9
		c2.84-0.22,5.54-0.63,7.75-1.06c9.77-1.42,21.71-7.67,24.07-18.2C125.89,90.15,116.4,84.01,105.02,83.23z M99.33,114.41
		c-1.36,0.35-2.97,0.62-4.72,0.81c3.87-8.68,7.04-17.73,8.94-25.08c6.01,0.77,11.1,3.68,12.06,9.36
		C114.08,108.67,108.38,113.2,99.33,114.41z"/>
</g>
</svg>
