<?xml version="1.0" encoding="utf-8"?>
<svg version="1.1" id="Logo-Calendar" xmlns="http://www.w3.org/2000/svg" xmlns:xlink="http://www.w3.org/1999/xlink" x="0px"
	 y="0px" viewBox="0 0 192 192" style="enable-background:new 0 0 192 192;" xml:space="preserve">
<g>
	<path fill="#FFFFFF" d="M106.56,92.27c-2.57,9.99-6.87,22.27-12.13,34.05c2.38-0.26,4.57-0.63,6.41-1.11
		c12.29-1.65,20.03-7.8,22.09-20.24C121.62,97.26,114.72,93.32,106.56,92.27z"/>
	<path fill="#FFFFFF" d="M144.07,68.01c-44.25,0-88.5,0-132.75,0c-0.11,0-0.21-0.03-0.32-0.05v99.37c0,7.5,6.08,13.57,13.57,13.57
		h142.85c7.5,0,13.57-6.08,13.57-13.57V68.01C168.69,68.01,156.38,68.01,144.07,68.01z M132.92,110.05
		c-3.2,14.29-19.42,22.77-32.67,24.7c-3,0.59-6.66,1.15-10.52,1.44c-13.15,25.8-30.14,44.73-41.62,22.94
		c-3.13-10.11,5.64-16.86,14.45-11.47c3.78,2.19-2.97,12.45-3.79,9.02c-0.57-2.39-4.25-4.31-5.23-1.95
		c4.66,14.84,15.54,0.96,25.51-18.58c-9.74-0.98-18.03-5.07-17.31-16.19c3.3,0.75,1.72,0.33,3.94,1.83
		c4.48,3.01,11.23,4.44,17.98,4.81c5.65-12.34,10.58-25.38,13.29-34.32c-9.11,1.1-17.77,5.16-20.63,11.1
		c-3.45,7.36,4.83,11.56,7.88,1.54c1.28-4.19,1.71-5.75,3.39-1.54c3.16,7.92-5.93,16.02-14.05,12.74c-8.41-3.4-7.71-13.64-2.4-20.05
		c5.93-7.17,16.89-11.74,28-12.96c0.04-0.48,0.05-0.88,0.02-1.19c-0.17-5.09,5.95-6.2,9.95-6.7c0.14,1.97-0.06,4.59-0.55,7.68
		C124.01,83.95,136.9,92.28,132.92,110.05z"/>
</g>
<path fill="#FFFFFF" d="M167.43,28.58h-18.43c0-3.5,0-7,0-10.5c0-3.55-3.12-6.95-6.79-6.79c-3.68,0.16-6.79,2.98-6.79,6.79
	c0,3.5,0,7,0,10.5H118.4c0-3.5,0-7,0-10.5c0-3.55-3.12-6.95-6.79-6.79c-3.68,0.16-6.79,2.98-6.79,6.79c0,3.5,0,7,0,10.5H87.81
	c0-3.5,0-7,0-10.5c0-3.55-3.12-6.95-6.79-6.79c-3.68,0.16-6.79,2.98-6.79,6.79c0,3.5,0,7,0,10.5H57.22c0-3.59,0-7.19,0-10.78
	c0-3.55-3.12-6.95-6.79-6.79c-3.68,0.16-6.79,2.98-6.79,6.79c0,3.59,0,7.19,0,10.78H24.57c-7.5,0-13.57,6.08-13.57,13.57v15.66
	c0.11-0.01,0.21-0.05,0.32-0.05c12.42,0,24.83,0,37.25,0c44.14,0,88.28,0,132.43,0V42.15C181,34.65,174.92,28.58,167.43,28.58z
	 M50.44,48.07c-5.25,0-9.5-4.25-9.5-9.5c0-2.59,1.04-4.93,2.71-6.64c0,1.76,0,3.52,0,5.29c0,3.55,3.12,6.95,6.79,6.79
	c3.68-0.16,6.79-2.98,6.79-6.79c0-1.76,0-3.52,0-5.29c1.68,1.71,2.71,4.06,2.71,6.64C59.94,43.81,55.69,48.07,50.44,48.07z
	 M81.03,48.07c-5.25,0-9.5-4.25-9.5-9.5c0-2.59,1.04-4.93,2.71-6.64c0,1.86,0,3.71,0,5.57c0,3.55,3.12,6.95,6.79,6.79
	c3.68-0.16,6.79-2.98,6.79-6.79c0-1.86,0-3.71,0-5.57c1.68,1.71,2.71,4.06,2.71,6.64C90.53,43.81,86.28,48.07,81.03,48.07z
	 M111.62,48.07c-5.25,0-9.5-4.25-9.5-9.5c0-2.59,1.04-4.93,2.71-6.64c0,1.86,0,3.71,0,5.57c0,3.55,3.12,6.95,6.79,6.79
	c3.68-0.16,6.79-2.98,6.79-6.79c0-1.86,0-3.71,0-5.57c1.68,1.71,2.71,4.06,2.71,6.64C121.12,43.81,116.87,48.07,111.62,48.07z
	 M142.21,48.07c-5.25,0-9.5-4.25-9.5-9.5c0-2.59,1.04-4.93,2.71-6.64c0,1.86,0,3.71,0,5.57c0,3.55,3.12,6.95,6.79,6.79
	c3.68-0.16,6.79-2.98,6.79-6.79c0-1.86,0-3.71,0-5.57c1.68,1.71,2.71,4.06,2.71,6.64C151.71,43.81,147.46,48.07,142.21,48.07z"/>
</svg>
