<svg width="24" height="24" viewBox="0 0 24 24" fill="none" xmlns="http://www.w3.org/2000/svg">
<path d="M13.4334 21.4523L13.3609 21.4884L13.3547 21.4946C13.3373 21.4963 13.3151 21.4978 13.2866 21.4987C13.2473 21.5 13.2052 21.5 13.1534 21.5C13.0572 21.5 12.9609 21.4958 12.8735 21.4523C12.7699 21.4008 12.6825 21.3572 12.6089 21.3153C12.573 21.2949 12.5456 21.2778 12.5253 21.2638C12.5072 21.2513 12.5002 21.2449 12.5002 21.2449L3.80845 12.5989C3.75798 12.5078 3.70926 12.4352 3.66991 12.3765L3.66667 12.3716C3.61634 12.2965 3.58204 12.2446 3.54727 12.1754C3.50421 12.0898 3.5 11.9955 3.5 11.9V3.7C3.5 3.68088 3.50565 3.64834 3.52203 3.61034C3.52967 3.5926 3.53801 3.57757 3.54538 3.56633C3.54938 3.56023 3.55232 3.55641 3.5538 3.55458C3.55566 3.55309 3.55958 3.5501 3.56586 3.54603C3.57731 3.53859 3.59265 3.53017 3.61077 3.52245C3.64949 3.50594 3.68318 3.5 3.7037 3.5H11.9471C12.0433 3.5 12.1396 3.50418 12.2271 3.54768C12.2969 3.58241 12.3493 3.61665 12.4247 3.6667L12.4295 3.66989C12.4886 3.70909 12.5617 3.75758 12.6533 3.80777L21.2917 12.4006C21.3042 12.4236 21.3158 12.4444 21.3257 12.4619C21.3293 12.4683 21.3326 12.4743 21.3357 12.4797C21.3582 12.52 21.3694 12.5417 21.3774 12.5603C21.3869 12.5823 21.3995 12.6146 21.3995 12.7V12.9079L21.4948 13.0027C21.4965 13.0194 21.4978 13.0407 21.4987 13.0678C21.5 13.1067 21.5 13.1485 21.5 13.2C21.5 13.2955 21.4958 13.3898 21.4527 13.4754C21.4009 13.5785 21.3571 13.6653 21.3151 13.7384C21.2947 13.7741 21.2776 13.8012 21.2635 13.8213C21.251 13.8391 21.2446 13.8461 21.2447 13.8461L13.8597 21.1922C13.7681 21.2424 13.695 21.2909 13.6359 21.3301L13.6311 21.3333C13.5556 21.3833 13.5032 21.4176 13.4334 21.4523ZM12.8008 20.9545L13.1558 21.3076L13.5084 20.9521L20.9476 13.4521L21.2992 13.0976L20.9452 12.7455L12.1992 4.04551L12.0529 3.9H11.8466H4.40741H3.90741V4.4V11.9V12.1079L4.05479 12.2545L12.8008 20.9545Z" stroke="black"/>
<circle cx="8" cy="8" r="1.375" stroke="black" stroke-width="1.25"/>
</svg>
