<svg width="24" height="24" viewBox="0 0 24 24" fill="none" xmlns="http://www.w3.org/2000/svg">
<path d="M21.6984 12.1L12.9524 3.4C12.7513 3.3 12.6508 3.2 12.4497 3.1C12.2487 3 12.0476 3 11.9471 3H3.7037C3.50265 3 3.30159 3.1 3.20106 3.2C3.10053 3.3 3 3.5 3 3.7V11.9C3 12 3 12.2 3.10053 12.4C3.20106 12.6 3.30159 12.7 3.40212 12.9L12.1481 21.6C12.2487 21.7 12.4497 21.8 12.6508 21.9C12.8519 22 13.0529 22 13.1534 22C13.3545 22 13.5556 22 13.6561 21.9C13.8571 21.8 13.9577 21.7 14.1587 21.6L21.5979 14.2C21.6984 14.1 21.7989 13.9 21.8995 13.7C22 13.5 22 13.3 22 13.2C22 13 22 12.8 21.8995 12.7C21.8995 12.4 21.7989 12.3 21.6984 12.1ZM13.1534 20.6L4.40741 11.9V4.4H11.8466L20.5926 13.1L13.1534 20.6Z" fill="black"/>
<circle cx="8" cy="8" r="1.375" stroke="black" stroke-width="1.25"/>
</svg>
